<!-- icon666.com - MILLIONS vector ICONS FREE --><svg viewBox="0 0 511 511.99981" xmlns="http://www.w3.org/2000/svg"><path d="m497.902344 256c13.6875 19.617188 18.097656 44.125 11.746094 67.835938-6.347657 23.695312-22.425782 42.714843-44.085938 52.863281 2.039062 23.839843-6.386719 47.265625-23.746094 64.617187-17.351562 17.359375-40.777344 25.785156-64.617187 23.746094-10.148438 21.660156-29.167969 37.738281-52.863281 44.085938-4.652344 1.242187-9.339844 2.082031-14.011719 2.5-2.5.230468-5 .351562-7.488281.351562-2.5 0-5-.121094-7.46875-.351562-13.847657-1.269532-27.167969-6.097657-38.777344-14.1875-.03125-.019532-.058594-.039063-.089844-.058594-19.617188 13.6875-44.125 18.097656-67.835938 11.746094-23.695312-6.347657-42.714843-22.425782-52.863281-44.085938-23.839843 2.050781-47.269531-6.386719-64.617187-23.746094-17.359375-17.351562-25.789063-40.777344-23.746094-64.617187-21.660156-10.148438-37.738281-29.167969-44.089844-52.863281-6.347656-23.710938-1.9375-48.21875 11.75-67.835938-13.6875-19.617188-18.097656-44.125-11.75-67.835938 6.351563-23.695312 22.429688-42.714843 44.089844-52.863281-2.042969-23.839843 6.386719-47.269531 23.746094-64.617187 17.347656-17.359375 40.777344-25.789063 64.617187-23.746094 10.148438-21.660156 29.167969-37.738281 52.863281-44.089844 23.710938-6.347656 48.21875-1.9375 67.835938 11.75.03125-.019531.058594-.039062.089844-.058594 19.597656-13.640624 44.078125-18.027343 67.746094-11.691406 23.695312 6.351563 42.714843 22.429688 52.863281 44.089844 23.839843-2.050781 47.265625 6.386719 64.617187 23.746094 17.359375 17.347656 25.785156 40.777344 23.746094 64.617187 21.660156 10.148438 37.738281 29.167969 44.085938 52.863281 6.351562 23.710938 1.941406 48.21875-11.746094 67.835938zm0 0" fill="#f0e7df"></path><path d="m497.902344 256c13.6875 19.617188 18.097656 44.125 11.746094 67.835938-6.347657 23.695312-22.425782 42.714843-44.085938 52.863281 2.039062 23.839843-6.386719 47.265625-23.746094 64.617187-17.351562 17.359375-40.777344 25.785156-64.617187 23.746094-10.148438 21.660156-29.167969 37.738281-52.863281 44.085938-4.652344 1.242187-9.339844 2.082031-14.011719 2.5h-53.734375v-497.109376c19.597656-13.640624 44.078125-18.027343 67.746094-11.691406 23.695312 6.351563 42.714843 22.429688 52.863281 44.089844 23.839843-2.050781 47.265625 6.386719 64.617187 23.746094 17.359375 17.347656 25.785156 40.777344 23.746094 64.617187 21.660156 10.148438 37.738281 29.167969 44.085938 52.863281 6.351562 23.710938 1.941406 48.21875-11.746094 67.835938zm0 0" fill="#dfcdbd"></path><path d="m407.929688 254.191406v23.765625c0 65.875-53.585938 119.472657-119.460938 119.472657-11.039062 0-21.730469-1.5-31.878906-4.332032-50.445313-13.976562-87.582032-60.304687-87.582032-115.140625v-14.457031c0-48.605469 39.144532-88.242188 87.582032-89.003906.46875-.019532.949218-.019532 1.429687-.019532h3.621094c47.085937 0 85.402344 38.316407 85.402344 85.402344 0 30.726563-25 55.726563-55.726563 55.726563-13.117187 0-25.199218-4.558594-34.726562-12.179688-12.789063-10.21875-20.988282-25.949219-20.988282-43.546875v-14.457031h29.996094v14.457031c0 14.191406 11.539063 25.730469 25.71875 25.730469 14.191406 0 25.730469-11.539063 25.730469-25.730469 0-30.546875-24.859375-55.40625-55.40625-55.40625h-3.621094c-.480469 0-.960937.011719-1.429687.019532-31.878906.761718-57.585938 26.941406-57.585938 59.007812v14.457031c0 38.109375 23.949219 70.734375 57.585938 83.59375 9.910156 3.800781 20.648437 5.878907 31.878906 5.878907 49.335938 0 89.460938-40.136719 89.460938-89.472657v-23.765625c0-66.875-54.40625-121.351562-121.28125-121.433594h-.148438c-32.40625 0-62.875 12.609376-85.8125 35.519532-22.96875 22.9375-35.617188 53.457031-35.617188 85.914062v68.863282h-30v-68.863282c0-40.488281 15.769532-78.535156 44.417969-107.144531 28.597657-28.566406 66.59375-44.285156 107.011719-44.285156h.191406c83.390625.101562 151.238282 68.035156 151.238282 151.429687zm0 0" fill="#ff633d"></path><g fill="#e70021"><path d="m347.042969 259.878906c0 30.726563-25 55.726563-55.726563 55.726563-13.117187 0-25.199218-4.558594-34.726562-12.179688v-58.003906h9.007812v14.457031c0 14.191406 11.539063 25.730469 25.71875 25.730469 14.191406 0 25.730469-11.539063 25.730469-25.730469 0-30.546875-24.859375-55.40625-55.40625-55.40625h-3.621094c-.480469 0-.960937.011719-1.429687.019532v-29.996094c.46875-.019532.949218-.019532 1.429687-.019532h3.621094c47.085937 0 85.402344 38.316407 85.402344 85.402344zm0 0"></path><path d="m407.929688 254.191406v23.765625c0 65.875-53.585938 119.472657-119.460938 119.472657-11.039062 0-21.730469-1.5-31.878906-4.332032v-31.546875c9.910156 3.800781 20.648437 5.878907 31.878906 5.878907 49.335938 0 89.460938-40.136719 89.460938-89.472657v-23.765625c0-66.875-54.40625-121.351562-121.28125-121.433594h-.058594v-29.996093h.101562c83.390625.101562 151.238282 68.035156 151.238282 151.429687zm0 0"></path></g></svg>